<svg height="163" width="478" viewBox="289 223 478 163" style="background-color:transparent;" preserveAspectRatio="xMinYMin meet" xmlns:xlink="http://www.w3.org/1999/xlink" xmlns="http://www.w3.org/2000/svg"><defs><style type="text/css">.svg-txt-center tspan {text-anchor: middle;}.svg-txt-right tspan {text-anchor: end;}</style></defs><g transform="translate(0,0)"><g transform="matrix(1,0,0,1,304,254)"><path style="fill:none;stroke:#333333;stroke-width:3.0;" d="m7.46692,-0.1844l37.5572,-1.957154c4.03262,-0.210206 7.33714,3.25098 7.28898,7.28894l-1.067616,89.5144c-0.04816,4.03808 -3.26104,7.5752 -7.28898,7.28906l-37.5572,-2.66894c-4.02794,-0.286376 -7.33976,-3.25146 -7.28898,-7.28906l1.067614,-84.8882c0.050782,-4.03784 3.25636,-7.07886 7.28898,-7.28906z"/><path style="fill:#fafafa;stroke:#333333;stroke-width:3.0;" d="m4.66474,6.0556l41.3822,-1.957154l0,13.39782l-42.094,-0.711914z"/><path style="fill:#fafafa;stroke:#333333;stroke-width:3.0;" d="m3.953,20.5956l42.094,-0.711792l0.889682,11.26282l-43.6954,-0.1781z"/><path style="fill:#fafafa;stroke:#333333;stroke-width:3.0;" d="m2.88538,34.2556l44.0514,0.355834l-0.711746,10.01734l-42.272,0.889648z"/><path style="fill:#fafafa;stroke:#333333;stroke-width:3.0;" d="m29.4476,58.4756c0,2.6875 -0.727078,5.75562 -3.37994,5.75562c-2.65286,0 -5.87104,-0.221192 -5.87104,-2.90844c0,-2.68726 0.371206,-5.9336 3.02406,-5.9336c2.65286,0 6.2269,0.39917 6.2269,3.08642z"/></g></g><g transform="translate(0,0)"><g transform="matrix(1,0,0,1,702,233)"><path style="fill:none;stroke:#333333;stroke-width:3.0;" d="m7.46692,-0.1844l37.5572,-1.957154c4.03262,-0.210206 7.33714,3.25098 7.28898,7.28894l-1.067616,89.5144c-0.04816,4.03808 -3.26104,7.5752 -7.28898,7.28906l-37.5572,-2.66894c-4.02794,-0.286376 -7.33976,-3.25146 -7.28898,-7.28906l1.067614,-84.8882c0.050782,-4.03784 3.25636,-7.07886 7.28898,-7.28906z"/><path style="fill:#fafafa;stroke:#333333;stroke-width:3.0;" d="m4.66474,6.0556l41.3822,-1.957154l0,13.39782l-42.094,-0.711914z"/><path style="fill:#fafafa;stroke:#333333;stroke-width:3.0;" d="m3.953,20.5956l42.094,-0.711792l0.889682,11.26282l-43.6954,-0.1781z"/><path style="fill:#fafafa;stroke:#333333;stroke-width:3.0;" d="m2.88538,34.2556l44.0514,0.355834l-0.711746,10.01734l-42.272,0.889648z"/><path style="fill:#fafafa;stroke:#333333;stroke-width:3.0;" d="m29.4476,58.4756c0,2.6875 -0.727078,5.75562 -3.37994,5.75562c-2.65286,0 -5.87104,-0.221192 -5.87104,-2.90844c0,-2.68726 0.371206,-5.9336 3.02406,-5.9336c2.65286,0 6.2269,0.39917 6.2269,3.08642z"/></g></g><g transform="translate(0,0)"><path style="fill:none;stroke:#333333;stroke-width:2;" d="M356,304 C527,304 527,283  698,283"/><polyline style="fill:#ffffff;stroke:#333333;stroke-width:2;fill-opacity:0;" points="680,293 698,283 680,273"/><text style="font-weight:Normal; font-size: 12px; text-anchor: middle; font-family: sans-serif; fill: #333333;" class="" y="269" x="684"/><text style="font-weight:Normal; font-size: 12px; text-anchor: start; font-family: sans-serif; fill: #333333;" class="" y="293" x="527"/><text style="font-weight:Normal; font-size: 12px; text-anchor: middle; font-family: sans-serif; fill: #333333;" class="" y="289" x="368"/></g><g transform="translate(0,0)"><rect style="fill: #ffffff;fill-opacity: 1;stroke-opacity:0;stroke-width: 1;stroke:%stroke%;" rx="4" height="40" width="74" y="257" x="452"/><text style="font-weight:Normal; font-size: 12px; text-anchor: start; font-family: arial,helvetica,sans-serif; fill: #333333;" class="" y="257" x="452"><tspan x="452" alignment-baseline="before-edge" font-weight="bold" font-size="36">SYN</tspan></text></g><text style="font-weight:Normal; font-size: 16px; text-anchor: end; font-family: Arial; fill: #ccc;" y="371" x="752">www.sketchboard.io</text></svg>